<?xml version="1.0" encoding="UTF-8"?>
<svg version="1.1" xmlns="http://www.w3.org/2000/svg" width="32" height="32">
<path d="M0 0 C4.79642058 2.39821029 7.60178971 5.20357942 10 10 C10.22879206 12.88278001 10.27716849 15.179403 10 18 C9.87625 19.27875 9.7525 20.5575 9.625 21.875 C9 25 9 25 7 27 C3.875 27.625 3.875 27.625 0 28 C-0.66902344 28.06574219 -1.33804687 28.13148437 -2.02734375 28.19921875 C-7.27618774 28.49138089 -10.05737777 27.40499193 -14 24 C-17.39090366 20.0736905 -18.6746341 17.05027553 -18.3828125 11.953125 C-17.47238201 7.30807149 -14.7168509 4.6190985 -11.25 1.625 C-7.26245631 -0.36877185 -4.37028828 -0.8565765 0 0 Z " fill="#138471" transform="translate(20,2)"/>
<path d="M0 0 C4.79642058 2.39821029 7.60178971 5.20357942 10 10 C10.30925996 12.76338734 10.19274495 15.20519828 10 18 C9.67 18 9.34 18 9 18 C8.67 15.36 8.34 12.72 8 10 C4.7 10 1.4 10 -2 10 C-2 10.66 -2 11.32 -2 12 C-0.576875 11.9690625 -0.576875 11.9690625 0.875 11.9375 C4 12 4 12 6 13 C5.67 13.99 5.34 14.98 5 16 C2.69 16 0.38 16 -2 16 C-2 18.64 -2 21.28 -2 24 C-3.32 24 -4.64 24 -6 24 C-6 21.36 -6 18.72 -6 16 C-8.31 16 -10.62 16 -13 16 C-13.33 15.01 -13.66 14.02 -14 13 C-13.34 13 -12.68 13 -12 13 C-12 13.66 -12 14.32 -12 15 C-10.02 15 -8.04 15 -6 15 C-6 13.35 -6 11.7 -6 10 C-10.65693023 9.58654995 -10.65693023 9.58654995 -14.875 11.1875 C-16.26229035 13.4225789 -16.64987213 15.40905378 -17 18 C-17.33 18 -17.66 18 -18 18 C-18.41859743 11.93033732 -18.14344799 8.79767662 -14 4 C-9.5187451 0.12982531 -5.76017089 -1.12899349 0 0 Z " fill="#41B3A4" transform="translate(20,2)"/>
<path d="M0 0 C4.95 0 9.9 0 15 0 C15 1.32 15 2.64 15 4 C13.02 4 11.04 4 9 4 C9 4.66 9 5.32 9 6 C10.423125 5.9690625 10.423125 5.9690625 11.875 5.9375 C15 6 15 6 17 7 C16.67 7.99 16.34 8.98 16 10 C13.69 10 11.38 10 9 10 C9 12.64 9 15.28 9 18 C7.68 18 6.36 18 5 18 C5 15.36 5 12.72 5 10 C2.69 10 0.38 10 -2 10 C-2.33 9.01 -2.66 8.02 -3 7 C-2.34 7 -1.68 7 -1 7 C-1 7.66 -1 8.32 -1 9 C0.98 9 2.96 9 5 9 C5 7.35 5 5.7 5 4 C3.35 4 1.7 4 0 4 C0 2.68 0 1.36 0 0 Z " fill="#AFC5C7" transform="translate(9,8)"/>
<path d="M0 0 C1.4241906 2.84838121 1.16995508 5.32787908 1.1875 8.5 C1.20167969 9.6653125 1.21585938 10.830625 1.23046875 12.03125 C1 15 1 15 -1 17 C-4.125 17.125 -4.125 17.125 -7 17 C-7.33 15.02 -7.66 13.04 -8 11 C-8.66 11 -9.32 11 -10 11 C-10 9.35 -10 7.7 -10 6 C-8.865625 5.87625 -7.73125 5.7525 -6.5625 5.625 C-4.7990625 5.315625 -4.7990625 5.315625 -3 5 C-2.67 4.34 -2.34 3.68 -2 3 C-4.64 2.67 -7.28 2.34 -10 2 C-10 1.34 -10 0.68 -10 0 C-3.34250344 -1.36176066 -3.34250344 -1.36176066 0 0 Z " fill="#228676" transform="translate(28,12)"/>
<path d="M0 0 C2.64 0.33 5.28 0.66 8 1 C8 3.64 8 6.28 8 9 C9.32 9 10.64 9 12 9 C12 8.01 12 7.02 12 6 C12.66 6 13.32 6 14 6 C14.38133299 7.9914056 14.71325582 9.99279077 15 12 C14 13 14 13 12.15234375 13.09765625 C10.1015625 13.06510417 8.05078125 13.03255208 6 13 C5.67 12.01 5.34 11.02 5 10 C5.66 10 6.32 10 7 10 C7 9.01 7 8.02 7 7 C5.824375 7.0928125 5.824375 7.0928125 4.625 7.1875 C3.75875 7.125625 2.8925 7.06375 2 7 C0 4 0 4 0 0 Z " fill="#177C6E" transform="translate(6,17)"/>
<path d="M0 0 C4.95 0 9.9 0 15 0 C15 1.32 15 2.64 15 4 C12.69 4 10.38 4 8 4 C8 5.32 8 6.64 8 8 C7.34 8 6.68 8 6 8 C6 6.35 6 4.7 6 3 C4.02 3 2.04 3 0 3 C0 2.01 0 1.02 0 0 Z " fill="#E2ECEA" transform="translate(9,8)"/>
<path d="M0 0 C2.5 0.125 2.5 0.125 3.5 1.125 C3.625 4.125 3.625 4.125 3.5 7.125 C2.5 8.125 2.5 8.125 -0.5625 8.1875 C-1.531875 8.166875 -2.50125 8.14625 -3.5 8.125 C-3.54241723 5.79205225 -3.54092937 3.45797433 -3.5 1.125 C-2.5 0.125 -2.5 0.125 0 0 Z " fill="#5E729B" transform="translate(24.5,20.875)"/>
<path d="M0 0 C0.66 0 1.32 0 2 0 C2.38133299 1.9914056 2.71325582 3.99279077 3 6 C2 7 2 7 0.15234375 7.09765625 C-1.8984375 7.06510417 -3.94921875 7.03255208 -6 7 C-6.33 6.01 -6.66 5.02 -7 4 C-3.535 3.505 -3.535 3.505 0 3 C0 2.01 0 1.02 0 0 Z " fill="#1B7369" transform="translate(18,23)"/>
<path d="M0 0 C2.5 1.5 2.5 1.5 4 3 C0.98509443 4.00496852 -1.04181692 4.10335303 -4.1875 4.0625 C-5.08855469 4.05347656 -5.98960938 4.04445313 -6.91796875 4.03515625 C-7.60503906 4.02355469 -8.29210938 4.01195312 -9 4 C-9.33 3.01 -9.66 2.02 -10 1 C-6.82253509 -0.58873246 -3.45987798 -0.41026221 0 0 Z " fill="#5FC9BF" transform="translate(20,2)"/>
<path d="M0 0 C2.31 0.33 4.62 0.66 7 1 C7 2.65 7 4.3 7 6 C5.02 6 3.04 6 1 6 C1 5.34 1 4.68 1 4 C0.34 4 -0.32 4 -1 4 C-0.67 2.68 -0.34 1.36 0 0 Z " fill="#27897B" transform="translate(7,11)"/>
<path d="M0 0 C5.75 -0.125 5.75 -0.125 8 1 C7.67 1.99 7.34 2.98 7 4 C4.69 4 2.38 4 0 4 C0 2.68 0 1.36 0 0 Z " fill="#5EA5A1" transform="translate(18,14)"/>
<path d="M0 0 C1.32 0 2.64 0 4 0 C4 2.31 4 4.62 4 7 C2.68 7 1.36 7 0 7 C0 4.69 0 2.38 0 0 Z " fill="#A1ACAE" transform="translate(14,19)"/>
<path d="M0 0 C-1.75 4.875 -1.75 4.875 -4 6 C-4.65555119 8.52733235 -4.65555119 8.52733235 -5 11 C-5.33 11 -5.66 11 -6 11 C-6.36601307 3.5577342 -6.36601307 3.5577342 -4.6875 1 C-3 0 -3 0 0 0 Z " fill="#3AAA94" transform="translate(8,9)"/>
<path d="M0 0 C0.598125 0.226875 1.19625 0.45375 1.8125 0.6875 C0.8225 0.6875 -0.1675 0.6875 -1.1875 0.6875 C-1.1875 2.9975 -1.1875 5.3075 -1.1875 7.6875 C-2.5075 7.0275 -3.8275 6.3675 -5.1875 5.6875 C-5.1875 2.6875 -5.1875 2.6875 -3.9375 0.9375 C-2.1875 -0.3125 -2.1875 -0.3125 0 0 Z " fill="#51B8A6" transform="translate(10.1875,4.3125)"/>
<path d="M0 0 C1.65 0 3.3 0 5 0 C5.33 1.32 5.66 2.64 6 4 C5.21625 3.79375 4.4325 3.5875 3.625 3.375 C2.75875 3.25125 1.8925 3.1275 1 3 C0.34 3.66 -0.32 4.32 -1 5 C-0.67 3.35 -0.34 1.7 0 0 Z " fill="#8EA2D3" transform="translate(22,21)"/>
<path d="M0 0 C2.64 0 5.28 0 8 0 C7.38125 0.2475 6.7625 0.495 6.125 0.75 C3.64931313 2.20628639 3.04874998 3.37812506 2 6 C2 5.01 2 4.02 2 3 C1.34 3 0.68 3 0 3 C0 2.01 0 1.02 0 0 Z " fill="#328B83" transform="translate(18,20)"/>
<path d="M0 0 C1.98 0 3.96 0 6 0 C6 0.99 6 1.98 6 3 C4.02 3 2.04 3 0 3 C0 2.01 0 1.02 0 0 Z " fill="#3F968B" transform="translate(8,14)"/>
</svg>
